<?xml version="1.0" standalone="no"?>
<!DOCTYPE svg PUBLIC "-//W3C//DTD SVG 20010904//EN"
 "http://www.w3.org/TR/2001/REC-SVG-20010904/DTD/svg10.dtd">
<svg version="1.0" xmlns="http://www.w3.org/2000/svg"
 width="373.000000pt" height="373.000000pt" viewBox="0 0 373.000000 373.000000"
 preserveAspectRatio="xMidYMid meet">
<metadata>
Created by potrace 1.11, written by Peter Selinger 2001-2013
</metadata>
<g transform="translate(0.000000,373.000000) scale(0.100000,-0.100000)"
fill="#000000" stroke="none">
<path d="M160 3123 c0 -11 43 -52 87 -82 l33 -22 -40 -59 c-22 -32 -40 -65
-40 -73 0 -16 118 -58 222 -79 53 -11 59 -15 66 -43 8 -29 10 -30 70 -33 l61
-3 6 -37 c14 -87 -4 -78 172 -85 87 -4 188 -7 226 -7 l67 0 0 -117 0 -116
-259 6 -260 7 6 -72 c3 -40 7 -74 8 -76 2 -2 117 -3 255 -2 l253 1 -7 -243
c-3 -134 -9 -280 -13 -325 l-6 -83 -38 0 -39 0 0 121 c0 83 3 118 11 114 6 -4
13 2 16 14 3 12 13 21 24 21 41 0 25 18 -21 23 -27 3 -60 13 -73 21 -21 14
-25 14 -45 0 -12 -8 -44 -18 -72 -21 -49 -6 -61 -23 -14 -23 15 0 24 -6 24
-15 0 -8 5 -15 10 -15 6 0 10 -45 10 -116 l0 -117 -40 6 c-26 3 -41 1 -42 -6
-4 -35 -4 -43 4 -53 5 -7 7 -18 6 -25 -2 -10 9 -15 35 -17 l38 -3 -3 -277 -3
-277 -35 -2 c-19 0 -39 -2 -44 -2 -4 -1 -5 -13 -1 -28 4 -16 8 -35 9 -43 0 -9
15 -17 36 -20 l35 -5 -3 -111 c-4 -127 -3 -129 70 -125 31 2 48 -2 48 -9 0 -7
6 -6 15 4 12 11 15 41 15 131 0 115 0 116 23 113 22 -3 22 -5 19 -119 -3 -91
-1 -117 10 -120 7 -2 62 -3 122 -1 l108 3 -3 117 -4 117 28 3 27 3 0 -120 0
-121 70 0 70 0 0 120 c0 119 0 120 23 120 19 0 26 8 36 41 14 47 11 53 -27 54
l-27 0 -2 105 c-1 58 -4 183 -7 278 l-6 172 25 0 c27 0 45 30 45 76 0 21 -5
24 -35 24 l-35 0 0 110 c0 89 3 112 15 116 8 4 15 12 15 20 0 8 10 14 25 14
45 0 26 17 -27 24 -29 4 -61 14 -70 23 -15 13 -19 13 -40 -1 -12 -9 -44 -19
-70 -22 -50 -7 -67 -24 -23 -24 15 0 25 -6 25 -14 0 -8 7 -16 15 -20 12 -4 15
-25 15 -98 0 -129 -4 -138 -50 -138 l-39 0 -5 53 c-4 28 -9 172 -14 319 -6
219 -5 269 6 273 8 3 300 5 649 5 l635 0 -6 -117 c-3 -65 -9 -209 -12 -320
l-6 -202 -29 -6 c-16 -4 -32 -4 -37 -1 -5 3 -12 53 -16 111 -6 102 -6 107 16
131 13 13 31 24 41 24 37 0 14 18 -31 24 -27 3 -57 13 -68 20 -16 13 -22 13
-40 1 -12 -8 -45 -17 -73 -21 -48 -6 -63 -24 -20 -24 10 0 19 -6 19 -14 0 -8
7 -16 15 -20 12 -4 15 -27 15 -117 l0 -111 -40 6 c-49 7 -58 -7 -41 -65 10
-33 15 -39 35 -35 48 9 50 3 40 -206 -5 -106 -8 -231 -6 -277 l2 -84 -28 6
c-15 3 -33 3 -38 -1 -15 -9 -28 -66 -14 -57 6 3 10 -3 10 -14 0 -17 6 -21 35
-21 l34 0 3 -118 3 -117 70 0 70 0 -3 95 c-3 116 2 140 28 140 19 0 20 -7 20
-119 l0 -120 111 -3 c61 -2 113 -1 115 1 2 2 4 58 4 123 l0 118 25 0 25 0 0
-114 c0 -73 4 -117 11 -122 6 -3 39 -6 72 -6 l62 0 3 120 3 121 27 3 c15 2 26
8 25 15 -2 7 2 24 7 38 7 18 6 31 -3 45 -13 22 -29 27 -24 9 1 -6 -6 -13 -15
-14 -12 -2 -18 3 -18 15 0 14 9 20 33 23 l32 4 -32 1 c-24 2 -33 7 -33 20 0
15 2 15 11 2 9 -12 9 -11 4 5 -9 25 -24 256 -24 388 -1 71 2 97 12 98 35 2 79
19 49 19 -8 0 -9 7 -2 26 17 44 13 54 -25 54 l-35 0 0 115 c0 84 3 114 12 113
7 -2 12 4 13 12 0 8 10 16 23 18 38 6 24 19 -28 26 -27 4 -56 13 -64 21 -17
17 -36 20 -36 5 0 -11 -64 -30 -103 -30 -16 0 -26 -4 -22 -10 3 -5 18 -10 32
-10 18 0 24 -4 19 -15 -3 -9 0 -15 9 -15 12 0 15 -21 15 -120 l0 -120 -44 0
-44 0 -6 148 c-3 81 -9 227 -12 325 l-6 177 256 0 256 0 0 44 c0 24 3 58 6 75
l6 31 -261 -7 -261 -6 0 115 0 115 223 8 c122 4 225 9 229 11 4 2 10 29 13 59
l7 55 62 0 c61 0 62 0 71 32 8 27 17 34 50 41 76 16 234 67 240 78 4 5 -12 38
-34 71 -23 34 -41 64 -41 67 0 4 12 14 28 24 44 28 96 76 89 83 -3 4 -28 -2
-54 -14 -77 -32 -179 -61 -309 -87 -569 -114 -1689 -134 -2424 -44 -258 32
-483 83 -622 144 -10 4 -18 3 -18 -2z m1485 -648 l0 -110 -90 -3 c-49 -1 -144
1 -210 5 l-120 8 -2 108 -2 107 212 -2 212 -3 0 -110z m105 -2 c0 -91 -3 -113
-14 -113 -12 0 -15 21 -18 98 -4 113 -1 129 18 129 11 0 14 -22 14 -114z m770
9 l0 -109 -122 -6 c-66 -4 -161 -7 -210 -7 l-88 0 0 115 0 115 210 0 210 0 0
-108z m-490 -12 c0 -103 -1 -110 -20 -110 -19 0 -20 7 -20 110 0 103 1 110 20
110 19 0 20 -7 20 -110z m-967 -1134 c-13 -383 -16 -411 -39 -414 -20 -3 -21
2 -27 164 -4 92 -7 220 -7 285 0 127 2 131 57 121 21 -4 21 -6 16 -156z m265
-130 l-3 -281 -22 -1 c-12 -1 -20 3 -17 8 3 5 1 15 -5 22 -6 8 -11 27 -11 42
1 16 -3 132 -9 258 -6 126 -8 232 -6 236 2 3 20 4 40 2 l35 -4 -2 -282z m1157
60 c-6 -226 -20 -349 -39 -343 -14 5 -23 147 -25 379 -1 198 -1 199 47 190
l24 -5 -7 -221z m272 112 c-4 -62 -7 -190 -7 -283 l0 -171 -26 -2 c-14 -1 -22
2 -19 8 3 5 2 18 -3 27 -5 10 -12 134 -16 276 l-6 257 42 0 41 0 -6 -112z"/>
<path d="M2702 1035 c0 -16 2 -22 5 -12 2 9 2 23 0 30 -3 6 -5 -1 -5 -18z"/>
<path d="M2900 1308 c0 -19 2 -20 10 -8 13 19 13 30 0 30 -5 0 -10 -10 -10
-22z"/>
<path d="M1488 1003 c7 -3 16 -2 19 1 4 3 -2 6 -13 5 -11 0 -14 -3 -6 -6z"/>
<path d="M1486 978 c3 -4 11 -5 19 -1 21 7 19 12 -4 10 -11 0 -18 -5 -15 -9z"/>
<path d="M1576 907 c3 -10 9 -15 12 -12 3 3 0 11 -7 18 -10 9 -11 8 -5 -6z"/>
<path d="M1552 890 c0 -14 2 -19 5 -12 2 6 2 18 0 25 -3 6 -5 1 -5 -13z"/>
<path d="M2166 897 c3 -10 9 -15 12 -12 3 3 0 11 -7 18 -10 9 -11 8 -5 -6z"/>
<path d="M1591 864 c0 -11 3 -14 6 -6 3 7 2 16 -1 19 -3 4 -6 -2 -5 -13z"/>
<path d="M2161 858 c-1 -20 14 -24 25 -6 4 6 3 8 -4 4 -5 -3 -13 0 -15 6 -3 8
-6 6 -6 -4z"/>
<path d="M2583 573 c15 -2 39 -2 55 0 15 2 2 4 -28 4 -30 0 -43 -2 -27 -4z"/>
<path d="M2832 560 c-29 -4 -56 -11 -59 -14 -9 -9 101 6 112 15 5 5 7 8 5 8
-3 -1 -29 -5 -58 -9z"/>
<path d="M2778 513 c7 -3 16 -2 19 1 4 3 -2 6 -13 5 -11 0 -14 -3 -6 -6z"/>
<path d="M2848 513 c6 -2 18 -2 25 0 6 3 1 5 -13 5 -14 0 -19 -2 -12 -5z"/>
<path d="M2818 493 c12 -2 32 -2 45 0 12 2 2 4 -23 4 -25 0 -35 -2 -22 -4z"/>
<path d="M877 474 c-8 -8 3 -34 15 -34 7 0 6 5 -1 13 -6 8 -8 17 -4 20 3 4 4
7 1 7 -2 0 -7 -3 -11 -6z"/>
<path d="M928 473 c6 -2 18 -2 25 0 6 3 1 5 -13 5 -14 0 -19 -2 -12 -5z"/>
<path d="M893 393 c15 -2 37 -2 50 0 12 2 0 4 -28 4 -27 0 -38 -2 -22 -4z"/>
<path d="M2858 353 c7 -3 16 -2 19 1 4 3 -2 6 -13 5 -11 0 -14 -3 -6 -6z"/>
<path d="M2818 333 c12 -2 32 -2 45 0 12 2 2 4 -23 4 -25 0 -35 -2 -22 -4z"/>
<path d="M888 303 c7 -3 16 -2 19 1 4 3 -2 6 -13 5 -11 0 -14 -3 -6 -6z"/>
<path d="M888 83 c7 -3 16 -2 19 1 4 3 -2 6 -13 5 -11 0 -14 -3 -6 -6z"/>
<path d="M940 66 c0 -2 7 -7 16 -10 8 -3 12 -2 9 4 -6 10 -25 14 -25 6z"/>
<path d="M888 13 c7 -3 16 -2 19 1 4 3 -2 6 -13 5 -11 0 -14 -3 -6 -6z"/>
</g>
</svg>
